<?xml version="1.0" encoding="UTF-8" standalone="no"?><svg xmlns="http://www.w3.org/2000/svg" xmlns:xlink="http://www.w3.org/1999/xlink" contentScriptType="application/ecmascript" contentStyleType="text/css" height="818px" preserveAspectRatio="none" style="width:1466px;height:818px;background:#FFFFFF;" version="1.1" viewBox="0 0 1466 818" width="1466px" zoomAndPan="magnify"><defs><filter height="300%" id="f15ucifuqql60q" width="300%" x="-1" y="-1"><feGaussianBlur result="blurOut" stdDeviation="2.0"/><feColorMatrix in="blurOut" result="blurOut2" type="matrix" values="0 0 0 0 0 0 0 0 0 0 0 0 0 0 0 0 0 0 .4 0"/><feOffset dx="4.0" dy="4.0" in="blurOut2" result="blurOut3"/><feBlend in="SourceGraphic" in2="blurOut3" mode="normal"/></filter></defs><g><rect fill="#FEFECE" filter="url(#f15ucifuqql60q)" height="33.9688" rx="12.5" ry="12.5" style="stroke:#A80036;stroke-width:1.5;" width="38" x="85.5" y="388.3936"/><text fill="#000000" font-family="sans-serif" font-size="12" lengthAdjust="spacing" textLength="18" x="95.5" y="409.5322">act</text><rect fill="#FEFECE" filter="url(#f15ucifuqql60q)" height="33.9688" rx="12.5" ry="12.5" style="stroke:#A80036;stroke-width:1.5;" width="117" x="46" y="457.3623"/><text fill="#000000" font-family="sans-serif" font-size="12" lengthAdjust="spacing" textLength="97" x="56" y="478.501">render graphics</text><polygon fill="#FEFECE" filter="url(#f15ucifuqql60q)" points="104.5,340.3936,116.5,352.3936,104.5,364.3936,92.5,352.3936,104.5,340.3936" style="stroke:#A80036;stroke-width:1.5;"/><line style="stroke:#000000;stroke-width:2.0;" x1="15" x2="15" y1="12.7451" y2="801.6514"/><rect fill="#FEFECE" filter="url(#f15ucifuqql60q)" height="33.9688" rx="12.5" ry="12.5" style="stroke:#A80036;stroke-width:1.5;" width="97" x="179" y="526.3311"/><text fill="#000000" font-family="sans-serif" font-size="12" lengthAdjust="spacing" textLength="77" x="189" y="547.4697">step physics</text><polygon fill="#FEFECE" filter="url(#f15ucifuqql60q)" points="485.5,260.6357,594.5,260.6357,584.5,277.6201,594.5,294.6045,485.5,294.6045" style="stroke:#A80036;stroke-width:1.5;"/><text fill="#000000" font-family="sans-serif" font-size="12" lengthAdjust="spacing" textLength="79" x="495.5" y="281.7744">body contact</text><polygon fill="#FEFECE" filter="url(#f15ucifuqql60q)" points="356.5,353.3662,424.5,353.3662,436.5,366.1709,424.5,378.9756,356.5,378.9756,344.5,366.1709,356.5,353.3662" style="stroke:#A80036;stroke-width:1.5;"/><text fill="#000000" font-family="sans-serif" font-size="11" lengthAdjust="spacing" textLength="21" x="394.5" y="389.186">yes</text><text fill="#000000" font-family="sans-serif" font-size="11" lengthAdjust="spacing" textLength="41" x="356.5" y="363.5767">contact</text><text fill="#000000" font-family="sans-serif" font-size="11" lengthAdjust="spacing" textLength="68" x="356.5" y="376.3813">mob ↔ hero</text><rect fill="#FEFECE" filter="url(#f15ucifuqql60q)" height="33.9688" rx="12.5" ry="12.5" style="stroke:#A80036;stroke-width:1.5;" width="100" x="340.5" y="411.7803"/><text fill="#000000" font-family="sans-serif" font-size="12" lengthAdjust="spacing" textLength="80" x="350.5" y="432.9189">remove 1 life</text><rect fill="#FEFECE" filter="url(#f15ucifuqql60q)" height="47.9375" rx="12.5" ry="12.5" style="stroke:#A80036;stroke-width:1.5;" width="137" x="322" y="541.9561"/><text fill="#000000" font-family="sans-serif" font-size="12" lengthAdjust="spacing" textLength="84" x="332" y="563.0947">put hero back</text><text fill="#000000" font-family="sans-serif" font-size="12" lengthAdjust="spacing" textLength="113" x="336" y="577.0635">to starting position</text><polygon fill="#FEFECE" filter="url(#f15ucifuqql60q)" points="390.5,493.5537,402.5,505.5537,390.5,517.5537,378.5,505.5537,390.5,493.5537" style="stroke:#A80036;stroke-width:1.5;"/><text fill="#000000" font-family="sans-serif" font-size="11" lengthAdjust="spacing" textLength="79" x="396.5" y="490.9595">hero has 0 hp</text><text fill="#000000" font-family="sans-serif" font-size="11" lengthAdjust="spacing" textLength="14" x="396.5" y="527.7642">no</text><text fill="#000000" font-family="sans-serif" font-size="11" lengthAdjust="spacing" textLength="21" x="402.5" y="502.9595">yes</text><ellipse cx="445.5" cy="505.5537" fill="#FFFFFF" filter="url(#f15ucifuqql60q)" rx="11" ry="11" style="stroke:#000000;stroke-width:1.0;"/><ellipse cx="445.5" cy="505.5537" fill="#000000" rx="6" ry="6" style="stroke:#7F7F7F;stroke-width:1.0;"/><polygon fill="#FEFECE" filter="url(#f15ucifuqql60q)" points="521.5,353.3662,596.5,353.3662,608.5,366.1709,596.5,378.9756,521.5,378.9756,509.5,366.1709,521.5,353.3662" style="stroke:#A80036;stroke-width:1.5;"/><text fill="#000000" font-family="sans-serif" font-size="11" lengthAdjust="spacing" textLength="21" x="563" y="389.186">yes</text><text fill="#000000" font-family="sans-serif" font-size="11" lengthAdjust="spacing" textLength="41" x="521.5" y="363.5767">contact</text><text fill="#000000" font-family="sans-serif" font-size="11" lengthAdjust="spacing" textLength="75" x="521.5" y="376.3813">mob ↔ sword</text><rect fill="#FEFECE" filter="url(#f15ucifuqql60q)" height="33.9688" rx="12.5" ry="12.5" style="stroke:#A80036;stroke-width:1.5;" width="98" x="510" y="411.7803"/><text fill="#000000" font-family="sans-serif" font-size="12" lengthAdjust="spacing" textLength="78" x="520" y="432.9189">remove mob</text><polygon fill="#FEFECE" filter="url(#f15ucifuqql60q)" points="640.5,353.3662,719.5,353.3662,731.5,366.1709,719.5,378.9756,640.5,378.9756,628.5,366.1709,640.5,353.3662" style="stroke:#A80036;stroke-width:1.5;"/><text fill="#000000" font-family="sans-serif" font-size="11" lengthAdjust="spacing" textLength="21" x="684" y="389.186">yes</text><text fill="#000000" font-family="sans-serif" font-size="11" lengthAdjust="spacing" textLength="41" x="640.5" y="363.5767">contact</text><text fill="#000000" font-family="sans-serif" font-size="11" lengthAdjust="spacing" textLength="79" x="640.5" y="376.3813">hero ↔ ladder</text><text fill="#000000" font-family="sans-serif" font-size="11" lengthAdjust="spacing" textLength="50" x="731.5" y="363.5767">unknown</text><polygon fill="#FEFECE" filter="url(#f15ucifuqql60q)" points="622.5,411.7803,737.5,411.7803,747.5,428.7646,737.5,445.749,622.5,445.749" style="stroke:#A80036;stroke-width:1.5;"/><text fill="#000000" font-family="sans-serif" font-size="12" lengthAdjust="spacing" textLength="95" x="632.5" y="432.9189">go to next level</text><polygon fill="#FEFECE" filter="url(#f15ucifuqql60q)" points="535,212.6357,547,224.6357,535,236.6357,523,224.6357,535,212.6357" style="stroke:#A80036;stroke-width:1.5;"/><line style="stroke:#000000;stroke-width:2.0;" x1="173" x2="173" y1="12.7451" y2="801.6514"/><polygon fill="#FEFECE" filter="url(#f15ucifuqql60q)" points="994,286.4248,1101,286.4248,1091,303.4092,1101,320.3936,994,320.3936" style="stroke:#A80036;stroke-width:1.5;"/><text fill="#000000" font-family="sans-serif" font-size="12" lengthAdjust="spacing" textLength="77" x="1004" y="307.5635">key pressed</text><polygon fill="#FEFECE" filter="url(#f15ucifuqql60q)" points="1030.5,354.1553,1054.5,354.1553,1066.5,366.1553,1054.5,378.1553,1030.5,378.1553,1018.5,366.1553,1030.5,354.1553" style="stroke:#A80036;stroke-width:1.5;"/><text fill="#000000" font-family="sans-serif" font-size="11" lengthAdjust="spacing" textLength="21" x="1032" y="369.9634">key</text><rect fill="#FEFECE" filter="url(#f15ucifuqql60q)" height="33.9688" rx="12.5" ry="12.5" style="stroke:#A80036;stroke-width:1.5;" width="86" x="850.5" y="413.7646"/><text fill="#000000" font-family="sans-serif" font-size="12" lengthAdjust="spacing" textLength="66" x="860.5" y="434.9033">move hero</text><rect fill="#FEFECE" filter="url(#f15ucifuqql60q)" height="33.9688" rx="12.5" ry="12.5" style="stroke:#A80036;stroke-width:1.5;" width="95" x="1010.5" y="413.7646"/><text fill="#000000" font-family="sans-serif" font-size="12" lengthAdjust="spacing" textLength="75" x="1020.5" y="434.9033">pause game</text><rect fill="#FEFECE" filter="url(#f15ucifuqql60q)" height="33.9688" rx="12.5" ry="12.5" style="stroke:#A80036;stroke-width:1.5;" width="101" x="1119.5" y="413.7646"/><text fill="#000000" font-family="sans-serif" font-size="12" lengthAdjust="spacing" textLength="81" x="1129.5" y="434.9033">spawn sword</text><rect fill="#FEFECE" filter="url(#f15ucifuqql60q)" height="33.9688" rx="12.5" ry="12.5" style="stroke:#A80036;stroke-width:1.5;" width="109" x="1115.5" y="495.5381"/><text fill="#000000" font-family="sans-serif" font-size="12" lengthAdjust="spacing" textLength="89" x="1125.5" y="516.6768">remove sword</text><polygon fill="#FEFECE" filter="url(#f15ucifuqql60q)" points="1042.5,609.8936,1042.5,609.8936,1054.5,621.8936,1042.5,633.8936,1042.5,633.8936,1030.5,621.8936,1042.5,609.8936" style="stroke:#A80036;stroke-width:1.5;"/><polygon fill="#FEFECE" filter="url(#f15ucifuqql60q)" points="1042.5,238.4248,1054.5,250.4248,1042.5,262.4248,1030.5,250.4248,1042.5,238.4248" style="stroke:#A80036;stroke-width:1.5;"/><line style="stroke:#000000;stroke-width:2.0;" x1="819.5" x2="819.5" y1="12.7451" y2="801.6514"/><ellipse cx="1358" cy="48.6982" fill="#000000" filter="url(#f15ucifuqql60q)" rx="10" ry="10" style="stroke:none;stroke-width:1.0;"/><rect fill="#FEFECE" filter="url(#f15ucifuqql60q)" height="33.9688" rx="12.5" ry="12.5" style="stroke:#A80036;stroke-width:1.5;" width="97" x="1309.5" y="78.6982"/><text fill="#000000" font-family="sans-serif" font-size="12" lengthAdjust="spacing" textLength="77" x="1319.5" y="99.8369">create game</text><rect fill="#FEFECE" filter="url(#f15ucifuqql60q)" height="33.9688" rx="12.5" ry="12.5" style="stroke:#A80036;stroke-width:1.5;" width="85" x="1315.5" y="132.667"/><text fill="#000000" font-family="sans-serif" font-size="12" lengthAdjust="spacing" textLength="65" x="1325.5" y="153.8057">start game</text><rect fill="#000000" filter="url(#f15ucifuqql60q)" height="6" rx="2.5" ry="2.5" style="stroke:#000000;stroke-width:1.0;" width="175" x="1261.5" y="186.6357"/><rect fill="#000000" filter="url(#f15ucifuqql60q)" height="6" rx="2.5" ry="2.5" style="stroke:#000000;stroke-width:1.0;" width="175" x="1261.5" y="699.6826"/><rect fill="#FEFECE" filter="url(#f15ucifuqql60q)" height="33.9688" rx="12.5" ry="12.5" style="stroke:#A80036;stroke-width:1.5;" width="67" x="1324.5" y="725.6826"/><text fill="#000000" font-family="sans-serif" font-size="12" lengthAdjust="spacing" textLength="47" x="1334.5" y="746.8213">cleanup</text><ellipse cx="1358" cy="790.6514" fill="#FFFFFF" filter="url(#f15ucifuqql60q)" rx="11" ry="11" style="stroke:#000000;stroke-width:1.0;"/><ellipse cx="1358" cy="790.6514" fill="#000000" rx="6" ry="6" style="stroke:#7F7F7F;stroke-width:1.0;"/><line style="stroke:#000000;stroke-width:2.0;" x1="1255.5" x2="1255.5" y1="12.7451" y2="801.6514"/><line style="stroke:#000000;stroke-width:2.0;" x1="1446.5" x2="1446.5" y1="12.7451" y2="801.6514"/><polygon fill="#A80036" points="286,466.3467,290,456.3467,294,466.3467,290,462.3467" style="stroke:#A80036;stroke-width:1.0;"/><line style="stroke:#A80036;stroke-width:1.5;" x1="104.5" x2="104.5" y1="422.3623" y2="457.3623"/><polygon fill="#A80036" points="100.5,447.3623,104.5,457.3623,108.5,447.3623,104.5,451.3623" style="stroke:#A80036;stroke-width:1.0;"/><line style="stroke:#A80036;stroke-width:1.5;" x1="104.5" x2="104.5" y1="364.3936" y2="388.3936"/><polygon fill="#A80036" points="100.5,378.3936,104.5,388.3936,108.5,378.3936,104.5,382.3936" style="stroke:#A80036;stroke-width:1.0;"/><line style="stroke:#A80036;stroke-width:1.5;" x1="92.5" x2="34" y1="352.3936" y2="352.3936"/><polygon fill="#A80036" points="30,525.8447,34,535.8447,38,525.8447,34,529.8447" style="stroke:#A80036;stroke-width:1.5;"/><line style="stroke:#A80036;stroke-width:1.5;" x1="34" x2="34" y1="352.3936" y2="685.6826"/><line style="stroke:#A80036;stroke-width:1.5;" x1="34" x2="1277.5" y1="685.6826" y2="685.6826"/><line style="stroke:#A80036;stroke-width:1.5;" x1="1277.5" x2="1277.5" y1="685.6826" y2="699.6826"/><polygon fill="#A80036" points="1273.5,689.6826,1277.5,699.6826,1281.5,689.6826,1277.5,693.6826" style="stroke:#A80036;stroke-width:1.0;"/><line style="stroke:#A80036;stroke-width:1.5;" x1="390.5" x2="390.5" y1="517.5537" y2="541.9561"/><polygon fill="#A80036" points="386.5,531.9561,390.5,541.9561,394.5,531.9561,390.5,535.9561" style="stroke:#A80036;stroke-width:1.0;"/><line style="stroke:#A80036;stroke-width:1.5;" x1="402.5" x2="434.5" y1="505.5537" y2="505.5537"/><polygon fill="#A80036" points="424.5,501.5537,434.5,505.5537,424.5,509.5537,428.5,505.5537" style="stroke:#A80036;stroke-width:1.0;"/><line style="stroke:#A80036;stroke-width:1.5;" x1="390.5" x2="390.5" y1="589.8936" y2="657.6826"/><polygon fill="#A80036" points="386.5,647.6826,390.5,657.6826,394.5,647.6826,390.5,651.6826" style="stroke:#A80036;stroke-width:1.0;"/><line style="stroke:#A80036;stroke-width:1.5;" x1="390.5" x2="390.5" y1="445.749" y2="493.5537"/><polygon fill="#A80036" points="386.5,483.5537,390.5,493.5537,394.5,483.5537,390.5,487.5537" style="stroke:#A80036;stroke-width:1.0;"/><line style="stroke:#A80036;stroke-width:1.5;" x1="390.5" x2="390.5" y1="378.9756" y2="411.7803"/><polygon fill="#A80036" points="386.5,401.7803,390.5,411.7803,394.5,401.7803,390.5,405.7803" style="stroke:#A80036;stroke-width:1.0;"/><line style="stroke:#A80036;stroke-width:1.5;" x1="559" x2="559" y1="378.9756" y2="411.7803"/><polygon fill="#A80036" points="555,401.7803,559,411.7803,563,401.7803,559,405.7803" style="stroke:#A80036;stroke-width:1.0;"/><line style="stroke:#A80036;stroke-width:1.5;" x1="559" x2="559" y1="445.749" y2="657.6826"/><polygon fill="#A80036" points="555,647.6826,559,657.6826,563,647.6826,559,651.6826" style="stroke:#A80036;stroke-width:1.0;"/><line style="stroke:#A80036;stroke-width:1.5;" x1="680" x2="680" y1="378.9756" y2="411.7803"/><polygon fill="#A80036" points="676,401.7803,680,411.7803,684,401.7803,680,405.7803" style="stroke:#A80036;stroke-width:1.0;"/><line style="stroke:#A80036;stroke-width:1.5;" x1="680" x2="680" y1="445.749" y2="657.6826"/><polygon fill="#A80036" points="676,647.6826,680,657.6826,684,647.6826,680,651.6826" style="stroke:#A80036;stroke-width:1.0;"/><line style="stroke:#A80036;stroke-width:1.5;" x1="436.5" x2="509.5" y1="366.1709" y2="366.1709"/><polygon fill="#A80036" points="499.5,362.1709,509.5,366.1709,499.5,370.1709,503.5,366.1709" style="stroke:#A80036;stroke-width:1.0;"/><line style="stroke:#A80036;stroke-width:1.5;" x1="608.5" x2="628.5" y1="366.1709" y2="366.1709"/><polygon fill="#A80036" points="618.5,362.1709,628.5,366.1709,618.5,370.1709,622.5,366.1709" style="stroke:#A80036;stroke-width:1.0;"/><line style="stroke:#A80036;stroke-width:1.5;" x1="535" x2="535" y1="294.6045" y2="328.3662"/><line style="stroke:#A80036;stroke-width:1.5;" x1="535" x2="390.5" y1="328.3662" y2="328.3662"/><line style="stroke:#A80036;stroke-width:1.5;" x1="390.5" x2="390.5" y1="328.3662" y2="353.3662"/><polygon fill="#A80036" points="386.5,343.3662,390.5,353.3662,394.5,343.3662,390.5,347.3662" style="stroke:#A80036;stroke-width:1.0;"/><line style="stroke:#A80036;stroke-width:1.5;" x1="731.5" x2="782.5" y1="366.1709" y2="366.1709"/><line style="stroke:#A80036;stroke-width:1.5;" x1="782.5" x2="782.5" y1="366.1709" y2="657.6826"/><polygon fill="#A80036" points="778.5,647.6826,782.5,657.6826,786.5,647.6826,782.5,651.6826" style="stroke:#A80036;stroke-width:1.0;"/><line style="stroke:#A80036;stroke-width:1.5;" x1="390.5" x2="782.5" y1="657.6826" y2="657.6826"/><line style="stroke:#A80036;stroke-width:1.5;" x1="535" x2="535" y1="236.6357" y2="260.6357"/><polygon fill="#A80036" points="531,250.6357,535,260.6357,539,250.6357,535,254.6357" style="stroke:#A80036;stroke-width:1.0;"/><line style="stroke:#A80036;stroke-width:1.5;" x1="535" x2="535" y1="657.6826" y2="667.6826"/><line style="stroke:#A80036;stroke-width:1.5;" x1="535" x2="800.5" y1="667.6826" y2="667.6826"/><polygon fill="#A80036" points="796.5,472.3467,800.5,462.3467,804.5,472.3467,800.5,468.3467" style="stroke:#A80036;stroke-width:1.5;"/><line style="stroke:#A80036;stroke-width:1.5;" x1="800.5" x2="800.5" y1="224.6357" y2="667.6826"/><line style="stroke:#A80036;stroke-width:1.5;" x1="800.5" x2="547" y1="224.6357" y2="224.6357"/><polygon fill="#A80036" points="557,220.6357,547,224.6357,557,228.6357,553,224.6357" style="stroke:#A80036;stroke-width:1.0;"/><line style="stroke:#A80036;stroke-width:1.5;" x1="523" x2="308" y1="224.6357" y2="224.6357"/><polygon fill="#A80036" points="304,461.3467,308,471.3467,312,461.3467,308,465.3467" style="stroke:#A80036;stroke-width:1.5;"/><line style="stroke:#A80036;stroke-width:1.5;" x1="308" x2="308" y1="224.6357" y2="685.6826"/><line style="stroke:#A80036;stroke-width:1.5;" x1="308" x2="1295.5" y1="685.6826" y2="685.6826"/><line style="stroke:#A80036;stroke-width:1.5;" x1="1295.5" x2="1295.5" y1="685.6826" y2="699.6826"/><polygon fill="#A80036" points="1291.5,689.6826,1295.5,699.6826,1299.5,689.6826,1295.5,693.6826" style="stroke:#A80036;stroke-width:1.0;"/><line style="stroke:#A80036;stroke-width:1.5;" x1="1170" x2="1170" y1="447.7334" y2="495.5381"/><polygon fill="#A80036" points="1166,485.5381,1170,495.5381,1174,485.5381,1170,489.5381" style="stroke:#A80036;stroke-width:1.0;"/><text fill="#000000" font-family="sans-serif" font-size="11" lengthAdjust="spacing" textLength="44" x="1174" y="475.4438">after 1s</text><line style="stroke:#A80036;stroke-width:1.5;" x1="1018.5" x2="893.5" y1="366.1553" y2="366.1553"/><line style="stroke:#A80036;stroke-width:1.5;" x1="893.5" x2="893.5" y1="366.1553" y2="413.7646"/><polygon fill="#A80036" points="889.5,403.7646,893.5,413.7646,897.5,403.7646,893.5,407.7646" style="stroke:#A80036;stroke-width:1.0;"/><text fill="#000000" font-family="sans-serif" font-size="11" lengthAdjust="spacing" textLength="97" x="893.5" y="393.7681">up|down|left|right</text><line style="stroke:#A80036;stroke-width:1.5;" x1="1066.5" x2="1170" y1="366.1553" y2="366.1553"/><line style="stroke:#A80036;stroke-width:1.5;" x1="1170" x2="1170" y1="366.1553" y2="413.7646"/><polygon fill="#A80036" points="1166,403.7646,1170,413.7646,1174,403.7646,1170,407.7646" style="stroke:#A80036;stroke-width:1.0;"/><text fill="#000000" font-family="sans-serif" font-size="11" lengthAdjust="spacing" textLength="34" x="1170" y="393.7681">space</text><line style="stroke:#A80036;stroke-width:1.5;" x1="1042.5" x2="1042.5" y1="378.1553" y2="390.0251"/><line style="stroke:#A80036;stroke-width:1.5;" x1="1042.5" x2="1058" y1="390.0251" y2="390.0251"/><line style="stroke:#A80036;stroke-width:1.5;" x1="1058" x2="1058" y1="390.0251" y2="413.7646"/><polygon fill="#A80036" points="1054,403.7646,1058,413.7646,1062,403.7646,1058,407.7646" style="stroke:#A80036;stroke-width:1.0;"/><text fill="#000000" font-family="sans-serif" font-size="11" lengthAdjust="spacing" textLength="20" x="1042.5" y="394.7681">esc</text><line style="stroke:#A80036;stroke-width:1.5;" x1="893.5" x2="893.5" y1="447.7334" y2="621.8936"/><line style="stroke:#A80036;stroke-width:1.5;" x1="893.5" x2="1030.5" y1="621.8936" y2="621.8936"/><polygon fill="#A80036" points="1020.5,617.8936,1030.5,621.8936,1020.5,625.8936,1024.5,621.8936" style="stroke:#A80036;stroke-width:1.0;"/><line style="stroke:#A80036;stroke-width:1.5;" x1="1170" x2="1170" y1="529.5068" y2="621.8936"/><line style="stroke:#A80036;stroke-width:1.5;" x1="1170" x2="1054.5" y1="621.8936" y2="621.8936"/><polygon fill="#A80036" points="1064.5,617.8936,1054.5,621.8936,1064.5,625.8936,1060.5,621.8936" style="stroke:#A80036;stroke-width:1.0;"/><line style="stroke:#A80036;stroke-width:1.5;" x1="1058" x2="1058" y1="447.7334" y2="543.6201"/><line style="stroke:#A80036;stroke-width:1.5;" x1="1058" x2="1042.5" y1="543.6201" y2="543.6201"/><line style="stroke:#A80036;stroke-width:1.5;" x1="1042.5" x2="1042.5" y1="543.6201" y2="609.8936"/><polygon fill="#A80036" points="1038.5,599.8936,1042.5,609.8936,1046.5,599.8936,1042.5,603.8936" style="stroke:#A80036;stroke-width:1.0;"/><line style="stroke:#A80036;stroke-width:1.5;" x1="1042.5" x2="1042.5" y1="320.3936" y2="354.1553"/><polygon fill="#A80036" points="1038.5,344.1553,1042.5,354.1553,1046.5,344.1553,1042.5,348.1553" style="stroke:#A80036;stroke-width:1.0;"/><line style="stroke:#A80036;stroke-width:1.5;" x1="1042.5" x2="1042.5" y1="262.4248" y2="286.4248"/><polygon fill="#A80036" points="1038.5,276.4248,1042.5,286.4248,1046.5,276.4248,1042.5,280.4248" style="stroke:#A80036;stroke-width:1.0;"/><line style="stroke:#A80036;stroke-width:1.5;" x1="1042.5" x2="1042.5" y1="633.8936" y2="643.8936"/><line style="stroke:#A80036;stroke-width:1.5;" x1="1042.5" x2="1236.5" y1="643.8936" y2="643.8936"/><polygon fill="#A80036" points="1232.5,472.3467,1236.5,462.3467,1240.5,472.3467,1236.5,468.3467" style="stroke:#A80036;stroke-width:1.5;"/><line style="stroke:#A80036;stroke-width:1.5;" x1="1236.5" x2="1236.5" y1="250.4248" y2="643.8936"/><line style="stroke:#A80036;stroke-width:1.5;" x1="1236.5" x2="1054.5" y1="250.4248" y2="250.4248"/><polygon fill="#A80036" points="1064.5,246.4248,1054.5,250.4248,1064.5,254.4248,1060.5,250.4248" style="stroke:#A80036;stroke-width:1.0;"/><line style="stroke:#A80036;stroke-width:1.5;" x1="1030.5" x2="838.5" y1="250.4248" y2="250.4248"/><polygon fill="#A80036" points="834.5,474.2412,838.5,484.2412,842.5,474.2412,838.5,478.2412" style="stroke:#A80036;stroke-width:1.5;"/><line style="stroke:#A80036;stroke-width:1.5;" x1="838.5" x2="838.5" y1="250.4248" y2="685.6826"/><line style="stroke:#A80036;stroke-width:1.5;" x1="838.5" x2="1420.5" y1="685.6826" y2="685.6826"/><line style="stroke:#A80036;stroke-width:1.5;" x1="1420.5" x2="1420.5" y1="685.6826" y2="699.6826"/><polygon fill="#A80036" points="1416.5,689.6826,1420.5,699.6826,1424.5,689.6826,1420.5,693.6826" style="stroke:#A80036;stroke-width:1.0;"/><line style="stroke:#A80036;stroke-width:1.5;" x1="1358" x2="1358" y1="58.6982" y2="78.6982"/><polygon fill="#A80036" points="1354,68.6982,1358,78.6982,1362,68.6982,1358,72.6982" style="stroke:#A80036;stroke-width:1.0;"/><line style="stroke:#A80036;stroke-width:1.5;" x1="1358" x2="1358" y1="112.667" y2="132.667"/><polygon fill="#A80036" points="1354,122.667,1358,132.667,1362,122.667,1358,126.667" style="stroke:#A80036;stroke-width:1.0;"/><line style="stroke:#A80036;stroke-width:1.5;" x1="1358" x2="1358" y1="166.6357" y2="186.6357"/><polygon fill="#A80036" points="1354,176.6357,1358,186.6357,1362,176.6357,1358,180.6357" style="stroke:#A80036;stroke-width:1.0;"/><line style="stroke:#A80036;stroke-width:1.5;" x1="1358" x2="1358" y1="705.6826" y2="725.6826"/><polygon fill="#A80036" points="1354,715.6826,1358,725.6826,1362,715.6826,1358,719.6826" style="stroke:#A80036;stroke-width:1.0;"/><line style="stroke:#A80036;stroke-width:1.5;" x1="1358" x2="1358" y1="759.6514" y2="779.6514"/><polygon fill="#A80036" points="1354,769.6514,1358,779.6514,1362,769.6514,1358,773.6514" style="stroke:#A80036;stroke-width:1.0;"/><line style="stroke:#A80036;stroke-width:1.5;" x1="104.5" x2="104.5" y1="491.3311" y2="508.8311"/><line style="stroke:#A80036;stroke-width:1.5;" x1="104.5" x2="227.5" y1="508.8311" y2="508.8311"/><line style="stroke:#A80036;stroke-width:1.5;" x1="227.5" x2="227.5" y1="508.8311" y2="526.3311"/><polygon fill="#A80036" points="223.5,516.3311,227.5,526.3311,231.5,516.3311,227.5,520.3311" style="stroke:#A80036;stroke-width:1.0;"/><line style="stroke:#A80036;stroke-width:1.5;" x1="227.5" x2="227.5" y1="560.2998" y2="572.2998"/><line style="stroke:#A80036;stroke-width:1.5;" x1="227.5" x2="290" y1="572.2998" y2="572.2998"/><line style="stroke:#A80036;stroke-width:1.5;" x1="290" x2="290" y1="352.3936" y2="572.2998"/><line style="stroke:#A80036;stroke-width:1.5;" x1="290" x2="116.5" y1="352.3936" y2="352.3936"/><polygon fill="#A80036" points="126.5,348.3936,116.5,352.3936,126.5,356.3936,122.5,352.3936" style="stroke:#A80036;stroke-width:1.0;"/><line style="stroke:#A80036;stroke-width:1.5;" x1="1277.5" x2="1277.5" y1="192.6357" y2="196.6357"/><line style="stroke:#A80036;stroke-width:1.5;" x1="1277.5" x2="104.5" y1="196.6357" y2="196.6357"/><line style="stroke:#A80036;stroke-width:1.5;" x1="104.5" x2="104.5" y1="196.6357" y2="340.3936"/><polygon fill="#A80036" points="100.5,330.3936,104.5,340.3936,108.5,330.3936,104.5,334.3936" style="stroke:#A80036;stroke-width:1.0;"/><line style="stroke:#A80036;stroke-width:1.5;" x1="1295.5" x2="1295.5" y1="192.6357" y2="196.6357"/><line style="stroke:#A80036;stroke-width:1.5;" x1="1295.5" x2="535" y1="196.6357" y2="196.6357"/><line style="stroke:#A80036;stroke-width:1.5;" x1="535" x2="535" y1="196.6357" y2="212.6357"/><polygon fill="#A80036" points="531,202.6357,535,212.6357,539,202.6357,535,206.6357" style="stroke:#A80036;stroke-width:1.0;"/><line style="stroke:#A80036;stroke-width:1.5;" x1="1420.5" x2="1420.5" y1="192.6357" y2="196.6357"/><line style="stroke:#A80036;stroke-width:1.5;" x1="1420.5" x2="1042.5" y1="196.6357" y2="196.6357"/><line style="stroke:#A80036;stroke-width:1.5;" x1="1042.5" x2="1042.5" y1="196.6357" y2="238.4248"/><polygon fill="#A80036" points="1038.5,228.4248,1042.5,238.4248,1046.5,228.4248,1042.5,232.4248" style="stroke:#A80036;stroke-width:1.0;"/><text fill="#000000" font-family="sans-serif" font-size="18" lengthAdjust="spacing" textLength="109" x="42.5" y="29.4531">Map Screen</text><text fill="#000000" font-family="sans-serif" font-size="18" lengthAdjust="spacing" textLength="119" x="439.75" y="29.4531">Box2D World</text><text fill="#000000" font-family="sans-serif" font-size="18" lengthAdjust="spacing" textLength="88" x="996.5" y="29.4531">Keyboard</text><text fill="#000000" font-family="sans-serif" font-size="18" lengthAdjust="spacing" textLength="67" x="1320.5" y="29.4531">LibGDX</text><!--MD5=[7c38fecbbd45c722c46dfb2200f54c92]
@startuml
skinparam conditionStyle diamond

|main| Map Screen
|box2d| Box2D World
|kbd| Keyboard
|gdx| LibGDX

start

:create game;
:start game;

fork

  |main|
  while ()
    :act;
    :render graphics;

	|box2d|
    :step physics;
  endwhile
    
fork again
   
  |box2d|
  while ()
    :body contact<
    
    if (contact\nmob ↔ hero) then (yes)
      :remove 1 life;
      if (hero has 0 hp) then (yes)
        stop
      else (no)
        :put hero back 
         to starting position;
      endif
    elseif (contact\nmob ↔ sword) then (yes)
      :remove mob;
    elseif (contact\nhero ↔ ladder) then (yes)
      :go to next level>
    else (unknown)
    endif
  endwhile

fork again

  |kbd|
  while ()
    :key pressed<
    
    switch (key)
      case (up|down|left|right)
        :move hero;
      case (esc)
        :pause game;
      case (space)
        :spawn sword;
        -> after 1s;
        :remove sword;
    endswitch
  endwhile
    
|gdx|
end fork

:cleanup;
  
stop
@enduml

PlantUML version 1.2021.16beta1(Unknown compile time)
(GPL source distribution)
Java Runtime: Java(TM) SE Runtime Environment
JVM: Java HotSpot(TM) 64-Bit Server VM
Default Encoding: UTF-8
Language: en
Country: US
--></g></svg>